<svg xmlns="http://www.w3.org/2000/svg" width="32" height="32" viewBox="0 0 32 32">
    <g fill="none" fill-rule="evenodd">
        <g fill="#D31145">
            <g>
                <g>
                    <path d="M19.187 7.612c-.369.358-.396.935-.076 1.326l.056.063 5.155 5.345H4.945c-.522 0-.945.424-.945.946 0 .491.375.895.854.94l.091.005h19.429l-5.207 5.398c-.358.37-.37.947-.039 1.328l.059.062c.368.359.946.37 1.328.039l.061-.058L28 15.318l-7.424-7.687c-.378-.39-1-.398-1.39-.02z" transform="translate(-823.000000, -730.000000) translate(485.000000, 264.000000) translate(338.000000, 466.000000)"/>
                </g>
            </g>
        </g>
    </g>
</svg>
