<svg xmlns="http://www.w3.org/2000/svg" width="24" height="24" viewBox="0 0 24 24">
    <g fill="none" fill-rule="evenodd">
        <g fill="#5B636B">
            <g>
                <g>
                    <path d="M20.1 17c.497 0 .9.403.9.9s-.403.9-.9.9H3.9c-.497 0-.9-.403-.9-.9s.403-.9.9-.9h16.2zm0-6c.497 0 .9.403.9.9s-.403.9-.9.9H3.9c-.497 0-.9-.403-.9-.9s.403-.9.9-.9h16.2zm0-6c.497 0 .9.403.9.9s-.403.9-.9.9H3.9c-.497 0-.9-.403-.9-.9s.403-.9.9-.9h16.2z" transform="translate(-376.000000, -678.000000) translate(56.000000, 658.000000) translate(320.000000, 20.000000)"/>
                </g>
            </g>
        </g>
    </g>
</svg>
