<svg width="445" height="508" xmlns="http://www.w3.org/2000/svg" xmlns:xlink="http://www.w3.org/1999/xlink">
    <defs>
        <path id="a" d="M0 0h443v397H0z"/>
    </defs>
    <g fill="none" fill-rule="evenodd">
        <path d="M5.569 240.165 391 124.722 368.82 5.138c-.9-4.845-4.995-6.574-9.102-3.84L4.44 237.77c-3.345 2.227-4.299 6.017-2.65 9.23-1.419-2.875-.026-5.694 3.779-6.835" fill="#F6CFDA"/>
        <g transform="translate(2 111)">
            <mask id="b" fill="#fff">
                <use xlink:href="#a"/>
            </mask>
            <path d="M270.002 393.747c-2.924 3.966-8.17 4.362-11.657.878L2.075 138.515c-3.486-3.485-2.475-7.494 2.248-8.91L435.397.364c4.723-1.416 8.115 1.43 7.54 6.324l-20.319 172.589c-.575 4.894-3.44 12.144-6.364 16.111L270.002 393.747z" fill="#E4708F" mask="url(#b)"/>
        </g>
        <path d="M5.914 240.732 251 167.092 94.14 46.644c-3.916-3.006-8.758-1.772-10.762 2.743L.966 235.103C-.917 239.347.043 245.387 3.06 249c-2.74-3.325-1.573-6.938 2.854-8.268" fill-opacity=".9" fill="#ED9FB4"/>
    </g>
</svg>
